HIERARCHY
ROOT newVegas:Hips
{
	OFFSET 0.000000 96.479958 0.000000
	CHANNELS 6 Xposition Yposition Zposition Xrotation Yrotation Zrotation
	JOINT newVegas:Pelvis
	{
		OFFSET 0.000000 0.000000 0.000000
		CHANNELS 3 Xrotation Yrotation Zrotation
		JOINT newVegas:LeftUpLeg
		{
			OFFSET 18.735201 -5.666702 -4.541200
			CHANNELS 3 Xrotation Yrotation Zrotation
			JOINT newVegas:LeftLeg
			{
				OFFSET -0.021200 -31.938179 0.493100
				CHANNELS 3 Xrotation Yrotation Zrotation
				JOINT newVegas:LeftFoot
				{
					OFFSET 0.021200 -31.938179 -4.336299
					CHANNELS 3 Xrotation Yrotation Zrotation
					JOINT newVegas:LeftToeBase
					{
						OFFSET 0.943001 -26.722000 15.023500
						CHANNELS 3 Xrotation Yrotation Zrotation
						End Site
						{
							OFFSET 0.000000 30.670183 0.000000
						}
					}
				}
				JOINT newVegas:Left_PantLeg
				{
					OFFSET 0.663870 -9.044666 -1.108900
					CHANNELS 3 Xrotation Yrotation Zrotation
					End Site
					{
						OFFSET 1.415995 20.635357 0.000000
					}
				}
			}
		}
		JOINT newVegas:RightUpLeg
		{
			OFFSET -18.735201 -5.666702 -4.541200
			CHANNELS 3 Xrotation Yrotation Zrotation
			JOINT newVegas:RightLeg
			{
				OFFSET 0.018946 -31.938133 0.493100
				CHANNELS 3 Xrotation Yrotation Zrotation
				JOINT newVegas:RightFoot
				{
					OFFSET -0.018946 -31.938126 -4.336299
					CHANNELS 3 Xrotation Yrotation Zrotation
					JOINT newVegas:RightToeBase
					{
						OFFSET -0.943001 -26.722004 15.023500
						CHANNELS 3 Xrotation Yrotation Zrotation
						End Site
						{
							OFFSET 0.000000 30.670187 0.000000
						}
					}
				}
				JOINT newVegas:Right_PantLeg
				{
					OFFSET -0.661674 -9.044716 -1.108900
					CHANNELS 3 Xrotation Yrotation Zrotation
					End Site
					{
						OFFSET -1.415958 20.635269 0.000000
					}
				}
			}
		}
	}
	JOINT newVegas:Spine
	{
		OFFSET 0.000000 10.199997 -0.299500
		CHANNELS 3 Xrotation Yrotation Zrotation
		JOINT newVegas:Spine1
		{
			OFFSET 0.000000 11.900002 -1.516600
			CHANNELS 3 Xrotation Yrotation Zrotation
			JOINT newVegas:Spine2
			{
				OFFSET 0.000000 13.600006 -2.842500
				CHANNELS 3 Xrotation Yrotation Zrotation
				JOINT newVegas:Neck
				{
					OFFSET 0.000000 9.624100 -2.890100
					CHANNELS 3 Xrotation Yrotation Zrotation
					JOINT newVegas:Head
					{
						OFFSET 0.000000 14.068802 -1.351900
						CHANNELS 3 Xrotation Yrotation Zrotation
						JOINT newVegas:Hair_Back
						{
							OFFSET 0.000000 3.231903 -17.524799
							CHANNELS 3 Xrotation Yrotation Zrotation
							End Site
							{
								OFFSET 0.000000 19.849884 0.000000
							}
						}
						JOINT newVegas:Hair_Front
						{
							OFFSET 0.000000 31.260406 4.573800
							CHANNELS 3 Xrotation Yrotation Zrotation
							JOINT newVegas:Hair_Front1
							{
								OFFSET 0.000000 2.284103 11.993300
								CHANNELS 3 Xrotation Yrotation Zrotation
								JOINT newVegas:Hair_Front2
								{
									OFFSET 0.000000 2.284103 11.993300
									CHANNELS 3 Xrotation Yrotation Zrotation
									End Site
									{
										OFFSET 0.000000 12.208862 0.000000
									}
								}
							}
						}
						JOINT newVegas:Jowel
						{
							OFFSET 0.000000 -7.458206 6.864100
							CHANNELS 3 Xrotation Yrotation Zrotation
							End Site
							{
								OFFSET 0.000000 19.849884 0.000000
							}
						}
					}
				}
				JOINT newVegas:LeftShoulder
				{
					OFFSET 15.263000 10.923401 -0.547700
					CHANNELS 3 Xrotation Yrotation Zrotation
					JOINT newVegas:LeftArm
					{
						OFFSET 25.438599 -2.830597 -13.032500
						CHANNELS 3 Xrotation Yrotation Zrotation
						JOINT newVegas:LeftForeArm
						{
							OFFSET 29.960503 0.000000 0.000000
							CHANNELS 3 Xrotation Yrotation Zrotation
							JOINT newVegas:LeftHand
							{
								OFFSET 27.849251 0.000000 0.000000
								CHANNELS 3 Xrotation Yrotation Zrotation
								JOINT newVegas:LeftHandThumb1
								{
									OFFSET 4.487587 -3.305161 6.305391
									CHANNELS 3 Xrotation Yrotation Zrotation
									JOINT newVegas:LeftHandThumb2
									{
										OFFSET 5.480453 -3.164139 3.164143
										CHANNELS 3 Xrotation Yrotation Zrotation
										JOINT newVegas:LeftHandThumb3
										{
											OFFSET 5.159721 -2.978973 2.978967
											CHANNELS 3 Xrotation Yrotation Zrotation
											End Site
											{
												OFFSET 2.494507 5.926697 1.738678
											}
										}
									}
								}
								JOINT newVegas:LeftHandIndex1
								{
									OFFSET 18.578728 -0.527832 5.208049
									CHANNELS 3 Xrotation Yrotation Zrotation
									JOINT newVegas:LeftHandIndex2
									{
										OFFSET 3.192009 0.000000 0.000000
										CHANNELS 3 Xrotation Yrotation Zrotation
										JOINT newVegas:LeftHandIndex3
										{
											OFFSET 3.835129 0.000000 0.000000
											CHANNELS 3 Xrotation Yrotation Zrotation
											End Site
											{
												OFFSET -0.034599 3.816971 0.371180
											}
										}
									}
								}
								JOINT newVegas:LeftHandMiddle1
								{
									OFFSET 18.476105 0.000000 0.000000
									CHANNELS 3 Xrotation Yrotation Zrotation
									JOINT newVegas:LeftHandMiddle2
									{
										OFFSET 3.324875 0.000000 0.000000
										CHANNELS 3 Xrotation Yrotation Zrotation
										JOINT newVegas:LeftHandMiddle3
										{
											OFFSET 4.596550 0.000000 0.000000
											CHANNELS 3 Xrotation Yrotation Zrotation
											End Site
											{
												OFFSET 0.057701 4.578827 0.399218
											}
										}
									}
								}
								JOINT newVegas:LeftHandRing1
								{
									OFFSET 17.732719 0.121887 -4.201567
									CHANNELS 3 Xrotation Yrotation Zrotation
									JOINT newVegas:LeftHandRing2
									{
										OFFSET 2.733170 0.000000 0.000000
										CHANNELS 3 Xrotation Yrotation Zrotation
										JOINT newVegas:LeftHandRing3
										{
											OFFSET 3.178268 0.000000 0.000000
											CHANNELS 3 Xrotation Yrotation Zrotation
											End Site
											{
												OFFSET 0.119102 3.170624 0.185394
											}
										}
									}
								}
								JOINT newVegas:LeftHandPinky1
								{
									OFFSET 15.989624 -0.606689 -7.535461
									CHANNELS 3 Xrotation Yrotation Zrotation
									JOINT newVegas:LeftHandPinky2
									{
										OFFSET 2.538986 0.000000 0.000000
										CHANNELS 3 Xrotation Yrotation Zrotation
										JOINT newVegas:LeftHandPinky3
										{
											OFFSET 2.593102 0.000000 0.000000
											CHANNELS 3 Xrotation Yrotation Zrotation
											End Site
											{
												OFFSET -0.150902 2.584198 0.152708
											}
										}
									}
								}
							}
							JOINT newVegas:Left_Sleeve
							{
								OFFSET 0.267448 -0.649796 0.577675
								CHANNELS 3 Xrotation Yrotation Zrotation
								End Site
								{
									OFFSET 0.000000 15.991241 0.000000
								}
							}
							JOINT newVegas:Left_CapeC
							{
								OFFSET 15.715958 -8.608795 -6.935905
								CHANNELS 3 Xrotation Yrotation Zrotation
								JOINT newVegas:Left_CapeC1
								{
									OFFSET 0.000000 -8.688499 0.000000
									CHANNELS 3 Xrotation Yrotation Zrotation
									End Site
									{
										OFFSET 0.000000 8.688499 0.000000
									}
								}
							}
						}
						JOINT newVegas:Left_CapeB
						{
							OFFSET 26.118385 -8.608795 -7.079235
							CHANNELS 3 Xrotation Yrotation Zrotation
							JOINT newVegas:Left_CapeB1
							{
								OFFSET 0.000000 -8.688499 0.000000
								CHANNELS 3 Xrotation Yrotation Zrotation
								End Site
								{
									OFFSET 0.000000 8.688499 0.000000
								}
							}
						}
						JOINT newVegas:Left_CapeA
						{
							OFFSET 5.115639 -8.608795 -10.395809
							CHANNELS 3 Xrotation Yrotation Zrotation
							JOINT newVegas:Left_CapeA1
							{
								OFFSET 0.000000 -8.688499 0.000000
								CHANNELS 3 Xrotation Yrotation Zrotation
								End Site
								{
									OFFSET 0.000000 8.688499 0.000000
								}
							}
						}
					}
				}
				JOINT newVegas:RightShoulder
				{
					OFFSET -15.263000 10.923401 -0.547700
					CHANNELS 3 Xrotation Yrotation Zrotation
					JOINT newVegas:RightArm
					{
						OFFSET -25.438599 -2.830597 -13.032500
						CHANNELS 3 Xrotation Yrotation Zrotation
						JOINT newVegas:RightForeArm
						{
							OFFSET -29.960503 0.000000 0.000000
							CHANNELS 3 Xrotation Yrotation Zrotation
							JOINT newVegas:RightHand
							{
								OFFSET -27.849251 0.000000 0.000000
								CHANNELS 3 Xrotation Yrotation Zrotation
								JOINT newVegas:RightHandThumb1
								{
									OFFSET -4.487587 -3.305161 6.305391
									CHANNELS 3 Xrotation Yrotation Zrotation
									JOINT newVegas:RightHandThumb2
									{
										OFFSET -5.480453 -3.164139 3.164143
										CHANNELS 3 Xrotation Yrotation Zrotation
										JOINT newVegas:RightHandThumb3
										{
											OFFSET -5.159721 -2.978973 2.978967
											CHANNELS 3 Xrotation Yrotation Zrotation
											End Site
											{
												OFFSET -2.494507 5.926697 1.738678
											}
										}
									}
								}
								JOINT newVegas:RightHandIndex1
								{
									OFFSET -18.578728 -0.527832 5.208049
									CHANNELS 3 Xrotation Yrotation Zrotation
									JOINT newVegas:RightHandIndex2
									{
										OFFSET -3.192009 0.000000 0.000000
										CHANNELS 3 Xrotation Yrotation Zrotation
										JOINT newVegas:RightHandIndex3
										{
											OFFSET -3.835129 0.000000 0.000000
											CHANNELS 3 Xrotation Yrotation Zrotation
											End Site
											{
												OFFSET 0.034599 3.816971 0.371180
											}
										}
									}
								}
								JOINT newVegas:RightHandMiddle1
								{
									OFFSET -18.476105 0.000000 0.000000
									CHANNELS 3 Xrotation Yrotation Zrotation
									JOINT newVegas:RightHandMiddle2
									{
										OFFSET -3.324875 0.000000 0.000000
										CHANNELS 3 Xrotation Yrotation Zrotation
										JOINT newVegas:RightHandMiddle3
										{
											OFFSET -4.596550 0.000000 0.000000
											CHANNELS 3 Xrotation Yrotation Zrotation
											End Site
											{
												OFFSET -0.057701 4.578827 0.399218
											}
										}
									}
								}
								JOINT newVegas:RightHandRing1
								{
									OFFSET -17.732719 0.121887 -4.201567
									CHANNELS 3 Xrotation Yrotation Zrotation
									JOINT newVegas:RightHandRing2
									{
										OFFSET -2.733170 0.000000 0.000000
										CHANNELS 3 Xrotation Yrotation Zrotation
										JOINT newVegas:RightHandRing3
										{
											OFFSET -3.178268 0.000000 0.000000
											CHANNELS 3 Xrotation Yrotation Zrotation
											End Site
											{
												OFFSET -0.119102 3.170624 0.185394
											}
										}
									}
								}
								JOINT newVegas:RightHandPinky1
								{
									OFFSET -15.989624 -0.606689 -7.535461
									CHANNELS 3 Xrotation Yrotation Zrotation
									JOINT newVegas:RightHandPinky2
									{
										OFFSET -2.538986 0.000000 0.000000
										CHANNELS 3 Xrotation Yrotation Zrotation
										JOINT newVegas:RightHandPinky3
										{
											OFFSET -2.593102 0.000000 0.000000
											CHANNELS 3 Xrotation Yrotation Zrotation
											End Site
											{
												OFFSET 0.150902 2.584198 0.152708
											}
										}
									}
								}
							}
							JOINT newVegas:Right_CapeC
							{
								OFFSET -15.715958 -8.608795 -6.935905
								CHANNELS 3 Xrotation Yrotation Zrotation
								JOINT newVegas:Right_CapeC1
								{
									OFFSET 0.000000 -8.688499 0.000000
									CHANNELS 3 Xrotation Yrotation Zrotation
									End Site
									{
										OFFSET 0.000000 8.688499 0.000000
									}
								}
							}
							JOINT newVegas:Right_Sleeve
							{
								OFFSET -0.267448 -0.649994 0.577675
								CHANNELS 3 Xrotation Yrotation Zrotation
								End Site
								{
									OFFSET 0.000000 15.991302 0.000000
								}
							}
						}
						JOINT newVegas:Right_CapeA
						{
							OFFSET -5.115540 -8.608795 -10.395824
							CHANNELS 3 Xrotation Yrotation Zrotation
							JOINT newVegas:Right_CapeA1
							{
								OFFSET 0.000000 -8.688499 0.000000
								CHANNELS 3 Xrotation Yrotation Zrotation
								End Site
								{
									OFFSET 0.000000 8.688499 0.000000
								}
							}
						}
						JOINT newVegas:Right_CapeB
						{
							OFFSET -26.118187 -8.608795 -7.079266
							CHANNELS 3 Xrotation Yrotation Zrotation
							JOINT newVegas:Right_CapeB1
							{
								OFFSET 0.000000 -8.688499 0.000000
								CHANNELS 3 Xrotation Yrotation Zrotation
								End Site
								{
									OFFSET 0.000000 8.688499 0.000000
								}
							}
						}
					}
				}
				JOINT newVegas:Left_Collar
				{
					OFFSET 18.625099 8.655502 8.828100
					CHANNELS 3 Xrotation Yrotation Zrotation
					JOINT newVegas:Left_Collar1
					{
						OFFSET 14.783401 10.540405 -1.259500
						CHANNELS 3 Xrotation Yrotation Zrotation
						End Site
						{
							OFFSET 0.000000 18.199875 0.000000
						}
					}
				}
				JOINT newVegas:Collar_Back
				{
					OFFSET 0.000000 15.630707 -20.132601
					CHANNELS 3 Xrotation Yrotation Zrotation
					End Site
					{
						OFFSET 0.000000 22.523010 0.000000
					}
				}
				JOINT newVegas:Left_Peck
				{
					OFFSET 17.239599 -5.132599 25.482599
					CHANNELS 3 Xrotation Yrotation Zrotation
					End Site
					{
						OFFSET 0.000000 22.523010 0.000000
					}
				}
				JOINT newVegas:Right_Peck
				{
					OFFSET -17.239599 -5.132202 25.482599
					CHANNELS 3 Xrotation Yrotation Zrotation
					End Site
					{
						OFFSET 0.000000 22.523010 0.000000
					}
				}
				JOINT newVegas:Right_Collar
				{
					OFFSET -18.625099 8.655792 8.828100
					CHANNELS 3 Xrotation Yrotation Zrotation
					JOINT newVegas:Right_Collar1
					{
						OFFSET -14.783401 10.539993 -1.259500
						CHANNELS 3 Xrotation Yrotation Zrotation
						End Site
						{
							OFFSET 0.000000 18.199631 0.000000
						}
					}
				}
			}
		}
		JOINT newVegas:Belly
		{
			OFFSET 0.000000 -6.540398 9.014299
			CHANNELS 3 Xrotation Yrotation Zrotation
			End Site
			{
				OFFSET 0.000000 11.566666 0.000000
			}
		}
	}
	JOINT newVegas:ElvisFacialAnim_Joint
	{
		OFFSET 1.000000 -95.330101 -8.825800
		CHANNELS 3 Xrotation Yrotation Zrotation
		End Site
		{
			OFFSET 0.000000 35.315800 0.000000
		}
	}
}
MOTION
Frames: 4
Frame Time: 0.033333
0.608860 95.056107 3.385392 -3.420355 3.942457 -3.389068 0.000000 0.000000 0.000000 -37.518260 -8.226954 -4.771218 52.383760 -0.415700 0.021041 26.570496 4.036906 12.577549 0.000002 -0.000000 -0.000001 -0.000001 -0.000001 0.000000 -18.939025 -11.828384 8.057122 31.679917 -0.318105 -0.142160 17.732471 -0.681597 -8.881841 -0.000002 0.000000 0.000000 -0.000000 -0.000000 0.000000 7.484025 -0.399285 -0.578432 -2.114713 -0.634071 1.955416 -2.107416 -0.526123 1.991271 -1.370083 -0.531253 0.127327 -1.370081 -0.531252 0.127327 -0.000000 -0.000000 -0.000000 -1.370081 -0.531253 0.127327 -1.370007 -0.531252 0.127327 -0.000001 0.000000 -0.000000 -0.000000 -0.000000 0.000000 1.091373 1.577348 -3.543020 -1.207969 1.492946 -78.012693 20.698685 -13.799231 -0.079304 -0.026785 -3.262836 -0.409666 10.557744 -2.873388 25.085808 -5.464647 26.112172 -7.055891 -0.000000 0.000000 0.000001 2.373015 3.635917 -10.145486 -2.147105 2.444727 -20.340694 0.000000 -0.000000 -0.000001 -1.988585 5.663251 -18.667730 0.262761 5.077777 -32.022621 0.000001 0.000001 0.000004 -4.964168 10.107596 -16.318025 4.011612 4.052345 -38.803770 0.000000 -0.000001 -0.000001 -6.473445 11.318542 -26.085140 10.720337 2.559777 -37.639438 0.000000 -0.000002 -0.000002 0.000003 -0.000000 0.000000 0.000003 -0.000000 0.000000 0.000002 -0.000000 0.000000 -0.000001 -0.000001 -0.000000 -0.000000 -0.000001 -0.000001 -0.000001 -0.000001 -0.000000 -0.000000 -0.000001 -0.000001 0.479131 5.314194 4.320679 -7.274275 4.805421 74.559206 13.988545 13.383111 -4.466974 0.106857 3.530024 -2.699161 15.558112 -0.731668 -16.759445 -6.578901 -24.369736 7.035354 0.000001 -0.000001 0.000001 2.254168 -2.297021 4.747835 -2.156507 -2.448759 14.947878 -0.000002 0.000000 -0.000001 -1.986994 -5.675210 8.743314 0.249504 -5.077711 22.098947 0.000001 0.000002 0.000000 -4.971276 -10.105529 7.764309 4.021061 -4.043846 30.252120 -0.000001 -0.000001 -0.000001 -6.480624 -11.314908 16.980474 10.704189 -2.551563 28.535707 0.000001 0.000001 0.000003 -0.000002 0.000001 -0.000003 -0.000002 0.000001 -0.000002 -0.000002 0.000001 -0.000002 -0.000000 0.000001 0.000001 -0.000000 0.000002 0.000001 -0.000000 0.000001 0.000001 -0.000000 0.000002 0.000001 0.000000 -0.000000 0.000000 0.000000 -0.000000 0.000000 0.000000 -0.000000 0.000000 0.000000 -0.000000 0.000000 0.000000 -0.000000 0.000000 0.000000 -0.000000 0.000000 0.000000 -0.000000 0.000000 0.000000 0.000000 0.000001 0.000000 0.000000 0.000000 
0.755342 95.624657 5.873803 -2.870672 2.156968 -2.513307 -0.000000 0.000000 0.000000 -39.092905 -9.776584 -5.918457 44.405508 -3.966342 -0.282047 26.994306 4.732020 11.404428 -0.000001 0.000000 -0.000001 -0.000000 -0.000000 0.000001 -17.280674 -11.704384 7.263234 30.960646 3.105848 0.091732 16.356998 -2.152499 -9.079069 -0.000000 -0.000000 0.000000 0.000001 0.000000 -0.000001 7.858400 0.081583 -1.423362 -2.561903 -0.067889 1.849945 -2.563381 -0.005461 1.830100 -1.253744 -0.478753 0.048028 -1.253739 -0.478752 0.048029 -0.000000 -0.000000 -0.000000 -1.253680 -0.478752 0.048029 -1.253696 -0.478754 0.048029 0.000001 0.000000 -0.000000 -0.000000 -0.000000 -0.000000 1.112450 2.202222 -3.887566 -0.295881 1.641786 -77.700252 19.706955 -14.733965 -0.082364 0.002022 -3.437989 0.042435 10.561999 -2.822642 25.090925 -5.320819 26.331259 -7.060910 0.000001 -0.000001 -0.000003 2.371112 3.626536 -10.382655 -2.146868 2.448404 -20.524761 0.000002 0.000000 0.000002 -1.987146 5.666561 -18.872658 0.264922 5.078795 -32.286612 0.000001 0.000001 0.000004 -4.964939 10.108435 -16.532427 4.011541 4.054034 -39.065523 -0.000000 -0.000001 -0.000001 -6.471586 11.320596 -26.295825 10.724834 2.564133 -37.921545 -0.000001 -0.000005 -0.000001 0.000001 -0.000001 -0.000000 0.000001 -0.000001 -0.000000 -0.000000 -0.000001 -0.000000 0.000000 0.000001 -0.000001 0.000000 0.000001 -0.000001 0.000000 0.000001 -0.000001 0.000000 0.000000 -0.000001 0.534003 6.167229 3.992652 -9.370455 5.104527 74.603411 13.606222 15.303073 -4.489281 0.153204 1.716819 -2.272779 15.523690 -0.706954 -16.821118 -6.654969 -24.251796 7.035488 -0.000001 -0.000000 -0.000000 2.241458 -2.179311 4.785707 -2.156435 -2.446838 14.852537 -0.000005 -0.000000 0.000000 -2.005456 -5.554684 8.812172 0.251836 -5.078352 22.177810 0.000001 0.000001 -0.000000 -4.971710 -10.106771 7.824822 4.019375 -4.043784 30.682385 -0.000002 -0.000001 -0.000001 -6.478921 -11.315880 17.045202 10.710127 -2.570192 29.309346 0.000001 0.000002 -0.000000 -0.000003 0.000000 0.000002 -0.000003 -0.000004 0.000003 -0.000003 0.000000 0.000003 0.000000 0.000003 0.000001 0.000000 0.000003 0.000000 0.000000 0.000003 0.000001 0.000000 0.000003 0.000000 -0.000000 0.000000 -0.000000 -0.000000 0.000000 -0.000000 -0.000000 0.000000 -0.000000 -0.000000 0.000000 -0.000000 -0.000000 0.000000 -0.000000 -0.000000 0.000000 -0.000000 -0.000000 0.000000 -0.000000 0.000000 0.000000 -0.000000 -0.000000 0.000000 0.000000 
0.939072 95.912369 8.433521 -2.420350 0.193451 -1.741640 0.000000 -0.000000 0.000000 -38.058244 -9.442631 -5.274293 33.014300 -3.825334 -0.292641 29.411314 5.624446 11.051294 0.000000 0.000000 -0.000001 -0.000000 -0.000002 0.000000 -16.013838 -11.215639 7.126843 31.632249 4.111526 0.106180 13.381034 -2.135020 -11.652140 0.000000 -0.000000 0.000000 -0.000000 -0.000000 0.000000 8.607791 0.653523 -1.943394 -3.067389 0.538503 1.625952 -3.079505 0.548865 1.537277 -1.199350 -0.431077 -0.034536 -1.199345 -0.431077 -0.034536 -0.000000 -0.000000 0.000000 -1.199349 -0.431077 -0.034537 -1.199345 -0.431077 -0.034536 -0.000000 -0.000000 -0.000000 -0.000000 -0.000000 -0.000000 1.117967 2.867525 -4.105603 0.223142 1.944669 -77.591065 19.940608 -15.078974 0.176282 -0.013490 -3.367522 -0.109197 10.573300 -2.687812 25.104485 -4.937286 26.913269 -7.077234 0.000001 0.000002 0.000001 2.366175 3.601589 -11.012708 -2.146678 2.447780 -21.014400 -0.000002 -0.000000 0.000001 -1.983260 5.665797 -19.417465 0.265233 5.081575 -32.987700 -0.000003 -0.000001 0.000000 -4.966783 10.107065 -17.102357 4.011444 4.054113 -39.760754 -0.000000 -0.000000 -0.000005 -6.470534 11.325699 -26.854933 10.724768 2.564180 -38.668699 0.000003 -0.000003 -0.000001 0.000000 0.000000 -0.000000 0.000000 0.000000 -0.000000 0.000000 0.000000 -0.000000 0.000000 0.000001 -0.000000 0.000000 0.000001 -0.000000 0.000000 0.000001 -0.000000 0.000000 0.000001 -0.000000 0.568983 6.830967 3.809191 -11.194913 5.381794 74.659261 15.367273 16.979543 -5.142779 0.218166 2.956336 -3.658038 15.432256 -0.641112 -16.984845 -6.856825 -23.938515 7.036609 -0.000002 0.000001 0.000001 2.207717 -1.866429 4.886570 -2.155988 -2.446693 14.599002 0.000003 0.000004 -0.000002 -2.055892 -5.234653 8.995133 0.258021 -5.080002 22.387325 -0.000002 0.000003 0.000001 -4.972861 -10.110104 7.985536 4.015331 -4.043574 31.825519 -0.000003 -0.000001 -0.000004 -6.474406 -11.318440 17.217199 10.724153 -2.623772 31.365403 -0.000004 -0.000000 -0.000002 -0.000000 -0.000002 0.000001 0.000002 -0.000004 0.000003 -0.000000 -0.000003 0.000001 0.000001 -0.000001 0.000001 0.000001 0.000000 0.000001 0.000001 -0.000001 0.000001 0.000001 -0.000000 0.000001 0.000000 -0.000000 0.000000 0.000000 -0.000000 0.000000 0.000000 -0.000000 0.000000 0.000000 -0.000000 0.000000 0.000000 -0.000000 0.000000 0.000000 -0.000000 0.000000 0.000000 -0.000000 0.000000 0.000000 -0.000000 0.000000 0.000000 -0.000000 0.000000 
1.138391 96.126480 11.243233 -2.617544 -1.785203 -1.186777 -0.000000 -0.000000 -0.000000 -35.341998 -6.975726 -3.304629 20.560655 -6.077911 -0.521448 33.185519 5.310773 8.170147 -0.000001 0.000000 -0.000001 -0.000001 -0.000000 -0.000000 -13.574880 -10.472795 7.003445 31.915985 4.710451 0.091198 10.338374 -1.914815 -13.426335 -0.000001 0.000000 0.000000 0.000001 0.000000 -0.000001 9.466283 1.288471 -1.812303 -3.191767 1.124180 1.218360 -3.205594 1.091391 1.056363 -1.234888 -0.377134 -0.170730 -1.234883 -0.377135 -0.170729 -0.000000 0.000000 -0.000000 -1.234956 -0.377135 -0.170730 -1.234815 -0.377134 -0.170729 0.000000 0.000000 -0.000000 -0.000000 0.000000 -0.000000 1.174267 3.078277 -4.675082 0.429716 2.517615 -77.096191 19.859977 -15.016794 0.312081 -0.027561 -3.283721 -0.451234 10.589331 -2.494666 25.123785 -4.383881 27.746954 -7.108458 -0.000000 -0.000002 -0.000003 2.359314 3.565783 -11.915550 -2.146286 2.446827 -21.715929 0.000003 0.000000 0.000001 -1.982492 5.664607 -20.197701 0.265617 5.085138 -33.992130 -0.000000 -0.000000 -0.000001 -4.969215 10.105071 -17.919063 4.011671 4.054214 -40.756849 0.000001 0.000001 -0.000001 -6.468501 11.322983 -27.657454 10.724640 2.564212 -39.739161 -0.000000 -0.000003 -0.000004 -0.000000 0.000000 -0.000000 -0.000000 0.000000 -0.000000 -0.000000 0.000000 -0.000001 -0.000000 -0.000001 -0.000000 -0.000000 -0.000001 -0.000000 -0.000000 -0.000001 -0.000000 -0.000000 -0.000001 -0.000001 0.615435 7.383141 3.400536 -12.767631 5.413666 75.129383 12.957901 19.335886 -4.436685 3.160929 3.276476 -4.214534 15.301420 -0.546353 -17.219117 -7.145162 -23.489644 7.040252 -0.000000 -0.000003 -0.000001 2.159412 -1.418190 5.031479 -2.155303 -2.446153 14.235744 0.000004 -0.000003 -0.000000 -2.131773 -4.776745 9.257444 0.262323 -5.080278 22.687220 0.000001 -0.000001 -0.000000 -4.974306 -10.107543 8.216617 4.010523 -4.043275 33.463443 -0.000000 -0.000001 -0.000000 -6.470251 -11.318677 17.463674 10.750842 -2.698697 34.311551 -0.000002 -0.000002 -0.000000 0.000001 0.000000 -0.000000 -0.000001 -0.000000 0.000000 0.000001 -0.000000 0.000000 0.000000 -0.000001 0.000000 0.000000 0.000000 -0.000000 0.000000 -0.000001 0.000000 0.000000 -0.000000 -0.000000 0.000000 0.000000 -0.000000 0.000000 0.000000 -0.000000 0.000000 0.000000 -0.000000 0.000000 0.000000 -0.000000 0.000000 0.000000 -0.000000 0.000000 0.000000 -0.000000 0.000000 0.000000 -0.000000 -0.000000 0.000000 -0.000000 -0.000000 -0.000000 -0.000000 
